# xmcd
#
# Track frame offsets: 
#        150
#        11412
#        24470
#        37552
#        47806
#        57686
#        69976
#        87985
#        102896
#        115935
#        132046
#        144218
#
# Disc length: 2145 seconds
#
# Revision: 0
# Processed by: cddbd v1.5.2PL0 Copyright (c) Steve Scherf et al.
# Submitted via: ExactAudioCopyFreeDBPlugin 1.0
#
DISCID=92085f0c
DTITLE=The Divebombers - Hooray For Us
DYEAR=2017
DGENRE=Hillbilly Rock and Roll
TTITLE0=Get Rhythm
TTITLE1=Sweet Love
TTITLE2=Cocaine Blues
TTITLE3=Lawdy Miss Clawdy
TTITLE4=Girlfriend of the Whirling Dervish
TTITLE5=White Lightning
TTITLE6=Tennessee Flat Top Box
TTITLE7=Act Naturally
TTITLE8=Bebop a Lula
TTITLE9=Folsom Prison Blues
TTITLE10=Shakin' All Over
TTITLE11=Wichita Lineman
EXTD=
EXTT0=
EXTT1=
EXTT2=
EXTT3=
EXTT4=
EXTT5=
EXTT6=
EXTT7=
EXTT8=
EXTT9=
EXTT10=
EXTT11=
PLAYORDER=
